<svg id="visual" viewBox="0 0 960 540" width="960" height="540" xmlns="http://www.w3.org/2000/svg" xmlns:xlink="http://www.w3.org/1999/xlink" version="1.1"><rect x="0" y="0" width="960" height="540" fill="#F5F5F5"></rect><g transform="translate(1.560079161336148 517.3205160681562)"><path d="M242.5 -346.2C290.7 -298.8 289.8 -196.3 336.8 -98.4C383.8 -0.5 478.6 92.9 478.3 174.4C477.9 255.8 382.4 325.3 286.8 375.8C191.2 426.2 95.6 457.6 6.8 448.3C-82.1 439 -164.2 389 -260.5 338.8C-356.8 288.6 -467.3 238.1 -480.1 164.1C-493 90.1 -408.2 -7.5 -365.6 -112.8C-323.1 -218.1 -322.9 -331.1 -269 -376.6C-215.1 -422.1 -107.6 -400.1 -5.2 -392.9C97.2 -385.8 194.4 -393.5 242.5 -346.2" fill="#714925"></path></g></svg>