<svg id="visual" viewBox="0 0 960 540" width="960" height="540" xmlns="http://www.w3.org/2000/svg" xmlns:xlink="http://www.w3.org/1999/xlink" version="1.1"><rect x="0" y="0" width="960" height="540" fill="#F5F5F5"></rect><g transform="translate(967.655304190225 14.585023597049315)"><path d="M229 -344.2C284.8 -274.6 309.8 -191.7 345.4 -106.5C381.1 -21.2 427.3 66.3 403.3 128.2C379.2 190 284.8 226 205.9 289.6C127 353.1 63.5 444 5.3 436.8C-52.9 429.5 -105.8 324 -191.4 262.6C-277 201.3 -395.3 184.1 -420 131C-444.8 78 -376 -10.9 -331 -94.7C-286.1 -178.5 -265 -257.1 -213.8 -328.1C-162.6 -399.2 -81.3 -462.6 2.6 -466.2C86.6 -469.9 173.2 -413.7 229 -344.2" fill="#B8C8A4"></path></g></svg>