<svg id="visual" viewBox="0 0 960 540" width="960" height="540" xmlns="http://www.w3.org/2000/svg" xmlns:xlink="http://www.w3.org/1999/xlink" version="1.1"><rect x="0" y="0" width="960" height="540" fill="#F5F5F5"></rect><g transform="translate(478.12796449983165 251.85468043031022)"><path d="M101 -127.7C141.3 -109.8 191.4 -94.1 197.6 -66.3C203.8 -38.4 166.1 1.7 140.4 34.7C114.6 67.7 100.8 93.7 79.4 131.8C58 169.8 29 219.9 -0.1 220C-29.2 220.2 -58.4 170.4 -97.2 138C-136.1 105.6 -184.5 90.7 -193.1 63C-201.6 35.4 -170.2 -4.8 -154.3 -49C-138.4 -93.2 -138 -141.2 -114.8 -164.7C-91.7 -188.2 -45.8 -187.1 -7.7 -176.5C30.4 -165.8 60.7 -145.6 101 -127.7" fill="#c6975f"></path></g></svg>